REM DIRINDEX 1\2,1\3,1\4,1\5
REM DIRNAME "folder01","folder02","folder03","folder04","folder05"
TITLE ""
FILE "P1Q_t_0501-0509.mp3" MP3
  TRACK 01 AUDIO
    TITLE "0:"
    INDEX 01 00:00:00
  TRACK 02 AUDIO
    TITLE "2:cjc173_2432"
    INDEX 01 00:00:08
  TRACK 03 AUDIO
    TITLE "0:"
    INDEX 01 00:03:36
  TRACK 04 AUDIO
    TITLE "2:cjc173_2433"
    INDEX 01 00:04:06
  TRACK 05 AUDIO
    TITLE "0:"
    INDEX 01 00:05:58
  TRACK 06 AUDIO
    TITLE "2:cjc173_2434"
    INDEX 01 00:06:31
  TRACK 07 AUDIO
    TITLE "0:"
    INDEX 01 00:07:32
  TRACK 08 AUDIO
    TITLE "3:cjc173_2435"
    INDEX 01 00:08:04
  TRACK 09 AUDIO
    TITLE "0:"
    INDEX 01 00:09:15
  TRACK 10 AUDIO
    TITLE "4:cjc173_2436"
    INDEX 01 00:09:37
  TRACK 11 AUDIO
    TITLE "0:"
    INDEX 01 00:12:21
  TRACK 12 AUDIO
    TITLE "5:cjc173_2437"
    INDEX 01 00:12:45
  TRACK 13 AUDIO
    TITLE "0:"
    INDEX 01 00:16:39
  TRACK 14 AUDIO
    TITLE "3:cjc173_2438"
    INDEX 01 00:17:09
  TRACK 15 AUDIO
    TITLE "0:"
    INDEX 01 00:18:18
  TRACK 16 AUDIO
    TITLE "4:cjc173_2439"
    INDEX 01 00:18:38
  TRACK 17 AUDIO
    TITLE "0:"
    INDEX 01 00:22:22
  TRACK 18 AUDIO
    TITLE "5:cjc173_2440"
    INDEX 01 00:22:41
  TRACK 19 AUDIO
    TITLE "0:"
    INDEX 01 00:26:63
  TRACK 20 AUDIO
    TITLE "3:cjc173_2441"
    INDEX 01 00:27:35
  TRACK 21 AUDIO
    TITLE "0:"
    INDEX 01 00:28:48
  TRACK 22 AUDIO
    TITLE "4:cjc173_2442"
    INDEX 01 00:28:67
  TRACK 23 AUDIO
    TITLE "0:"
    INDEX 01 00:32:48
  TRACK 24 AUDIO
    TITLE "5:cjc173_2443"
    INDEX 01 00:32:67
  TRACK 25 AUDIO
    TITLE "0:"
    INDEX 01 00:36:73
  TRACK 26 AUDIO
    TITLE "3:cjc173_2444"
    INDEX 01 00:37:45
  TRACK 27 AUDIO
    TITLE "0:"
    INDEX 01 00:39:04
  TRACK 28 AUDIO
    TITLE "4:cjc173_2445"
    INDEX 01 00:39:24
  TRACK 29 AUDIO
    TITLE "0:"
    INDEX 01 00:41:01
  TRACK 30 AUDIO
    TITLE "5:cjc173_2446"
    INDEX 01 00:41:23
  TRACK 31 AUDIO
    TITLE "0:"
    INDEX 01 00:45:44
  TRACK 32 AUDIO
    TITLE "3:cjc173_2447"
    INDEX 01 00:46:14
  TRACK 33 AUDIO
    TITLE "0:"
    INDEX 01 00:47:22
  TRACK 34 AUDIO
    TITLE "4:cjc173_2448"
    INDEX 01 00:47:43
  TRACK 35 AUDIO
    TITLE "0:"
    INDEX 01 00:50:51
  TRACK 36 AUDIO
    TITLE "5:cjc173_2449"
    INDEX 01 00:50:73
  TRACK 37 AUDIO
    TITLE "0:"
    INDEX 01 00:55:52
  TRACK 38 AUDIO
    TITLE "3:cjc173_2450"
    INDEX 01 00:56:25
  TRACK 39 AUDIO
    TITLE "0:"
    INDEX 01 00:57:46
  TRACK 40 AUDIO
    TITLE "4:cjc173_2451"
    INDEX 01 00:57:63
  TRACK 41 AUDIO
    TITLE "0:"
    INDEX 01 01:00:46
  TRACK 42 AUDIO
    TITLE "5:cjc173_2452"
    INDEX 01 01:00:65
  TRACK 43 AUDIO
    TITLE "0:"
    INDEX 01 01:05:18
  TRACK 44 AUDIO
    TITLE "3:cjc173_2453"
    INDEX 01 01:05:65
  TRACK 45 AUDIO
    TITLE "0:"
    INDEX 01 01:07:09
  TRACK 46 AUDIO
    TITLE "4:cjc173_2454"
    INDEX 01 01:07:30
  TRACK 47 AUDIO
    TITLE "0:"
    INDEX 01 01:09:66
  TRACK 48 AUDIO
    TITLE "5:cjc173_2455"
    INDEX 01 01:10:13
  TRACK 49 AUDIO
    TITLE "0:"
    INDEX 01 01:14:32
  TRACK 50 AUDIO
    TITLE "3:cjc173_2456"
    INDEX 01 01:15:02
  TRACK 51 AUDIO
    TITLE "0:"
    INDEX 01 01:16:31
  TRACK 52 AUDIO
    TITLE "4:cjc173_2457"
    INDEX 01 01:16:53
  TRACK 53 AUDIO
    TITLE "0:"
    INDEX 01 01:20:49
  TRACK 54 AUDIO
    TITLE "5:cjc173_2458"
    INDEX 01 01:20:68
  TRACK 55 AUDIO
    TITLE "0:"
    INDEX 01 01:25:58
  TRACK 56 AUDIO
    TITLE "3:cjc173_2459"
    INDEX 01 01:26:26
  TRACK 57 AUDIO
    TITLE "0:"
    INDEX 01 01:27:64
  TRACK 58 AUDIO
    TITLE "4:cjc173_2460"
    INDEX 01 01:28:11
  TRACK 59 AUDIO
    TITLE "0:"
    INDEX 01 01:32:16
  TRACK 60 AUDIO
    TITLE "5:cjc173_2461"
    INDEX 01 01:32:36
  TRACK 61 AUDIO
    TITLE "0:"
    INDEX 01 01:36:53
